<svg xmlns="http://www.w3.org/2000/svg" width="64" height="px" viewBox="0 0 64 119"><path style="stroke:none;fill-rule:nonzero;fill:#e76f00;fill-opacity:1" d="M61.305 93.836h-.45v-.25h1.208v.25h-.446v1.25h-.312Zm2.406.066h-.008l-.441 1.184h-.203l-.442-1.184h-.008v1.184h-.293v-1.5h.434l.41 1.062.406-1.062H64v1.5h-.29Zm0 0"/><path style="stroke:none;fill-rule:nonzero;fill:#5382a1;fill-opacity:1" d="M21.16 63.125s-3.12 1.813 2.219 2.426c6.473.738 9.777.633 16.906-.719 0 0 1.875 1.176 4.492 2.195-15.98 6.848-36.172-.398-23.617-3.902m-1.953-8.938s-3.5 2.59 1.844 3.141c6.91.715 12.37.774 21.812-1.047 0 0 1.309 1.324 3.364 2.051-19.325 5.648-40.848.445-27.02-4.145"/><path style="stroke:none;fill-rule:nonzero;fill:#e76f00;fill-opacity:1" d="M35.672 39.031c3.937 4.532-1.035 8.61-1.035 8.61s10-5.16 5.406-11.621c-4.29-6.028-7.578-9.02 10.23-19.344 0 0-27.953 6.98-14.601 22.355"/><path style="stroke:none;fill-rule:nonzero;fill:#5382a1;fill-opacity:1" d="M56.809 69.734s2.308 1.899-2.543 3.371c-9.223 2.793-38.395 3.637-46.5.114-2.914-1.27 2.55-3.028 4.27-3.395 1.788-.39 2.816-.316 2.816-.316-3.243-2.281-20.942 4.476-8.993 6.414 32.586 5.285 59.403-2.379 50.95-6.188M22.66 44.93s-14.84 3.523-5.254 4.804c4.047.54 12.114.418 19.625-.21 6.145-.52 12.309-1.622 12.309-1.622s-2.164.93-3.73 1.996C30.54 53.863 1.43 52.02 9.808 47.965c7.09-3.422 12.851-3.035 12.851-3.035m26.617 14.875c15.32-7.957 8.239-15.606 3.293-14.575-1.21.254-1.75.47-1.75.47s.45-.704 1.309-1.009c9.777-3.437 17.3 10.137-3.156 15.512 0 0 .234-.21.304-.398"/><path style="stroke:none;fill-rule:nonzero;fill:#e76f00;fill-opacity:1" d="M40.043.008s8.484 8.484-8.047 21.527c-13.254 10.465-3.02 16.43-.004 23.246-7.738-6.976-13.414-13.12-9.605-18.84 5.59-8.39 21.082-12.46 17.656-25.933"/><path style="stroke:none;fill-rule:nonzero;fill:#5382a1;fill-opacity:1" d="M24.164 81.363c14.703.942 37.285-.52 37.816-7.476 0 0-1.027 2.636-12.148 4.73-12.55 2.36-28.031 2.086-37.21.574 0 0 1.878 1.555 11.542 2.172"/><path style="stroke:none;fill-rule:nonzero;fill:#e76f00;fill-opacity:1" d="M21.754 107.938c-1.387 1.203-2.852 1.878-4.164 1.878-1.88 0-2.89-1.125-2.89-2.93 0-1.952 1.085-3.378 5.445-3.378h1.609v4.43m3.828 4.316V98.89c0-3.41-1.945-5.664-6.64-5.664-2.743 0-5.145.675-7.098 1.539l.566 2.367c1.535-.567 3.524-1.09 5.477-1.09 2.707 0 3.867 1.09 3.867 3.34v1.687h-1.348c-6.574 0-9.539 2.551-9.539 6.38 0 3.304 1.957 5.179 5.633 5.179 2.367 0 4.129-.977 5.781-2.402l.301 2.027Zm12.773 0h-4.773l-5.746-18.688h4.172l3.562 11.48.793 3.454c1.805-4.992 3.078-10.059 3.719-14.934h4.055c-1.086 6.153-3.043 12.907-5.782 18.688m18.313-4.317c-1.39 1.204-2.855 1.88-4.172 1.88-1.875 0-2.89-1.126-2.89-2.93 0-1.953 1.09-3.38 5.445-3.38h1.617v4.43m3.828 4.317V98.89c0-3.41-1.953-5.664-6.644-5.664-2.743 0-5.145.675-7.094 1.539l.562 2.367c1.535-.567 3.528-1.09 5.48-1.09 2.704 0 3.868 1.09 3.868 3.34v1.687h-1.352c-6.574 0-9.539 2.551-9.539 6.38 0 3.304 1.953 5.179 5.63 5.179 2.366 0 4.132-.977 5.784-2.402l.301 2.027Zm-53.824 3.172c-1.09 1.594-2.852 2.855-4.781 3.566L0 116.77c1.469-.754 2.727-1.97 3.313-3.102.507-1.008.714-2.309.714-5.414V86.918h4.067v21.043c0 4.152-.332 5.832-1.422 7.465"/></svg>